HIERARCHY
ROOT Hips
{
  OFFSET 0.0273292 -0.436096 0.279869
  CHANNELS 6 Xposition Yposition Zposition Zrotation Xrotation Yrotation
  JOINT LHipJoint
  {
    OFFSET 0 0 0
    CHANNELS 6 Xposition Yposition Zposition Zrotation Xrotation Yrotation
    JOINT LeftUpLeg
    {
      OFFSET 1.36306 -1.79463 0
      CHANNELS 6 Xposition Yposition Zposition Zrotation Xrotation Yrotation
      JOINT LeftLeg
      {
        OFFSET 2.44807 -6.72613 0.000295034
        CHANNELS 6 Xposition Yposition Zposition Zrotation Xrotation Yrotation
        JOINT LeftFoot
        {
          OFFSET 2.5622 -7.03959 3.59965e-05
          CHANNELS 6 Xposition Yposition Zposition Zrotation Xrotation Yrotation
          JOINT LeftToeBase
          {
            OFFSET 0.15764 -0.43311 2.32255
            CHANNELS 6 Xposition Yposition Zposition Zrotation Xrotation Yrotation
            End Site
            {
              OFFSET 0 0 0
            }
          }
        }
      }
    }
  }
  JOINT RHipJoint
  {
    OFFSET 0 0 0
    CHANNELS 6 Xposition Yposition Zposition Zrotation Xrotation Yrotation
    JOINT RightUpLeg
    {
      OFFSET -1.30552 -1.79463 0
      CHANNELS 6 Xposition Yposition Zposition Zrotation Xrotation Yrotation
      JOINT RightLeg
      {
        OFFSET -2.54234 -6.98562 -0.000396375
        CHANNELS 6 Xposition Yposition Zposition Zrotation Xrotation Yrotation
        JOINT RightFoot
        {
          OFFSET -2.56826 -7.05623 -4.47982e-05
          CHANNELS 6 Xposition Yposition Zposition Zrotation Xrotation Yrotation
          JOINT RightToeBase
          {
            OFFSET -0.16473 -0.45259 2.36315
            CHANNELS 6 Xposition Yposition Zposition Zrotation Xrotation Yrotation
            End Site
            {
              OFFSET 0 0 0
            }
          }
        }
      }
    }
  }
  JOINT LowerBack
  {
    OFFSET 0 0 0
    CHANNELS 6 Xposition Yposition Zposition Zrotation Xrotation Yrotation
    JOINT Spine
    {
      OFFSET 0.0282699 2.03559 0
      CHANNELS 6 Xposition Yposition Zposition Zrotation Xrotation Yrotation
      JOINT Spine1
      {
        OFFSET 0.05672 2.04885 -0.04275
        CHANNELS 6 Xposition Yposition Zposition Zrotation Xrotation Yrotation
        JOINT Neck
        {
          OFFSET 0 0 0
          CHANNELS 6 Xposition Yposition Zposition Zrotation Xrotation Yrotation
          JOINT Neck1
          {
            OFFSET -0.05417 1.74624 0.17202
            CHANNELS 6 Xposition Yposition Zposition Zrotation Xrotation Yrotation
            JOINT Head
            {
              OFFSET 0.10407 1.76136 -0.12397
              CHANNELS 6 Xposition Yposition Zposition Zrotation Xrotation Yrotation
              End Site
              {
                OFFSET 0 0 0
              }
            }
          }
        }
        JOINT LeftShoulder
        {
          OFFSET 0 0 0
          CHANNELS 6 Xposition Yposition Zposition Zrotation Xrotation Yrotation
          JOINT LeftArm
          {
            OFFSET 3.36241 1.20089 -0.311211
            CHANNELS 6 Xposition Yposition Zposition Zrotation Xrotation Yrotation
            JOINT LeftForeArm
            {
              OFFSET 4.983 0.000197398 0.000166057
              CHANNELS 6 Xposition Yposition Zposition Zrotation Xrotation Yrotation
              JOINT LeftHand
              {
                OFFSET 3.48356 0 1.87849e-05
                CHANNELS 6 Xposition Yposition Zposition Zrotation Xrotation Yrotation
                JOINT LeftFingerBase
                {
                  OFFSET 0 0 0
                  CHANNELS 6 Xposition Yposition Zposition Zrotation Xrotation Yrotation
                  JOINT LeftHandIndex1
                  {
                    OFFSET 0.71526 0 0
                    CHANNELS 6 Xposition Yposition Zposition Zrotation Xrotation Yrotation
                    End Site
                    {
                      OFFSET 0 0 0
                    }
                  }
                }
                JOINT LThumb
                {
                  OFFSET 0 0 0
                  CHANNELS 6 Xposition Yposition Zposition Zrotation Xrotation Yrotation
                  End Site
                  {
                    OFFSET 0 0 0
                  }
                }
              }
            }
          }
        }
        JOINT RightShoulder
        {
          OFFSET 0 0 0
          CHANNELS 6 Xposition Yposition Zposition Zrotation Xrotation Yrotation
          JOINT RightArm
          {
            OFFSET -3.1366 1.37405 -0.404651
            CHANNELS 6 Xposition Yposition Zposition Zrotation Xrotation Yrotation
            JOINT RightForeArm
            {
              OFFSET -5.2419 -5.8808e-05 -0.000165864
              CHANNELS 6 Xposition Yposition Zposition Zrotation Xrotation Yrotation
              JOINT RightHand
              {
                OFFSET -3.44417 0 -2.00002e-05
                CHANNELS 6 Xposition Yposition Zposition Zrotation Xrotation Yrotation
                JOINT RightFingerBase
                {
                  OFFSET 0 0 0
                  CHANNELS 6 Xposition Yposition Zposition Zrotation Xrotation Yrotation
                  JOINT RightHandIndex1
                  {
                    OFFSET -0.62253 0 0
                    CHANNELS 6 Xposition Yposition Zposition Zrotation Xrotation Yrotation
                    End Site
                    {
                      OFFSET 0 0 0
                    }
                  }
                }
                JOINT RThumb
                {
                  OFFSET 0 0 0
                  CHANNELS 6 Xposition Yposition Zposition Zrotation Xrotation Yrotation
                  End Site
                  {
                    OFFSET 0 0 0
                  }
                }
              }
            }
          }
        }
      }
    }
  }
}
MOTION
Frames:	5
Frame Time:	0.00833333
0.222493 -0.435159 0.371303 3.11084 3.90721 -11.9454 0 0 0 -9.93923e-16 0 -0 1.36306 -1.79463 2.72696e-07 -161.818 -84.7435 -161.386 2.44807 -6.72613 0.000295034 -104.865 65.3687 128.412 2.5622 -7.03959 3.59965e-05 1.32695 -40.4517 -12.4456 0.15764 -0.43311 2.32255 -1.2424e-15 3.18055e-15 7.95139e-16 0 0 0 -9.93923e-16 0 -0 -1.30552 -1.79463 9.47086e-09 11.5866 -16.4575 16.003 -2.54234 -6.98562 -0.000396375 122.776 55.6037 -145.393 -2.56826 -7.05623 -4.47982e-05 12.9193 -39.8632 22.5507 -0.16473 -0.45259 2.36315 -0 0 3.18055e-15 0 0 0 -9.93923e-16 0 -0 0.0282699 2.03559 2.04641e-09 -2.08954 -7.94555 7.5973 0.05672 2.04885 -0.04275 -1.49089e-16 7.95139e-16 -0 0 0 0 -9.93923e-17 7.95139e-16 -0 -0.05417 1.74624 0.17202 2.96354 -2.03053 -0.376138 0.10407 1.76136 -0.12397 -1.98785e-16 7.95139e-16 7.95139e-16 0 0 0 -9.93923e-17 7.95139e-16 -0 3.36241 1.20089 -0.311211 -68.1911 2.18198 25.9018 4.983 0.000197398 0.000166057 0.902714 1.1845 0.00117557 3.48356 3.24813e-06 1.87849e-05 7.99792e-05 3.18055e-15 0.000109791 0 0 0 -4.77083e-15 -7.95139e-16 3.18055e-15 0.71526 -8.88178e-16 2.22045e-16 2.38542e-15 7.95139e-16 6.36111e-15 0 0 0 -4.77083e-15 -7.95139e-16 3.18055e-15 0 0 0 -9.93923e-17 7.95139e-16 -0 -3.1366 1.37405 -0.404651 74.1102 -1.44369 -13.3054 -5.2419 -5.8808e-05 -0.000165864 0.442801 -2.1274 26.1761 -3.44417 5.22754e-06 -2.00002e-05 -6.0642e-05 0 -0.000384773 0 0 0 1.19271e-15 -1.59028e-15 -6.36111e-15 -0.62253 -8.88178e-16 0 1.19271e-15 0 -4.77083e-15 0 0 0 1.19271e-15 -1.59028e-15 -6.36111e-15 
0.219886 -0.427409 0.382173 3.04793 3.89991 -11.7097 0 0 0 4.96962e-16 -7.95139e-16 -0 1.36306 -1.79463 2.72696e-07 -156.38 -86.6098 -155.416 2.44807 -6.72613 0.000295034 -105.022 65.3281 128.256 2.5622 -7.03959 3.59965e-05 1.01395 -38.0703 -11.9595 0.15764 -0.43311 2.32255 -2.88238e-15 0 -0 0 0 0 4.96962e-16 -7.95139e-16 -0 -1.30552 -1.79463 9.47086e-09 11.054 -14.6806 15.3718 -2.54234 -6.98562 -0.000396375 122.394 55.95 -144.938 -2.56826 -7.05623 -4.47982e-05 12.5475 -38.8785 21.9202 -0.16473 -0.45259 2.36315 3.18055e-15 6.36111e-15 -0 0 0 0 4.96962e-16 -7.95139e-16 -0 0.0282699 2.03559 2.04641e-09 -2.15652 -7.93903 7.946 0.05672 2.04885 -0.04275 -1.2424e-16 0 3.97569e-16 0 0 0 -1.49089e-16 0 3.97569e-16 -0.05417 1.74624 0.17202 2.86997 -2.02435 -0.258346 0.10407 1.76136 -0.12397 3.97569e-16 0 -7.95139e-16 0 0 0 -1.49089e-16 0 3.97569e-16 3.36241 1.20089 -0.311211 -68.2367 2.10833 25.4393 4.983 0.000197398 0.000166057 0.888933 1.14787 -0.0930078 3.48356 3.24813e-06 1.87849e-05 8.2716e-05 -1.59028e-15 0.000111301 0 0 0 3.97569e-16 2.38542e-15 -0 0.71526 8.88178e-16 2.22045e-16 -1.19271e-15 0 -0 0 0 0 3.97569e-16 2.38542e-15 -0 0 0 0 -1.49089e-16 0 3.97569e-16 -3.1366 1.37405 -0.404651 74.019 -1.46102 -13.6385 -5.2419 -5.8808e-05 -0.000165864 0.558907 -2.34568 28.6868 -3.44417 5.22754e-06 -2.00002e-05 -6.70909e-05 1.59028e-15 -0.000369854 0 0 0 3.18055e-15 1.59028e-15 -0 -0.62253 -1.77636e-15 0 -3.18055e-15 0 -0 0 0 0 3.18055e-15 1.59028e-15 -0 
0.213509 -0.408206 0.396144 2.89423 3.88161 -11.1327 0 0 0 9.93923e-17 7.95139e-16 -0 1.36306 -1.79463 2.72696e-07 -127.441 -88.4283 -125.896 2.44807 -6.72613 0.000295034 -105.442 65.209 127.974 2.5622 -7.03959 3.59965e-05 0.0352648 -32.8155 -11.0614 0.15764 -0.43311 2.32255 1.98785e-15 0 -1.59028e-15 0 0 0 9.93923e-17 7.95139e-16 -0 -1.30552 -1.79463 9.47086e-09 10.5463 -12.7739 14.0778 -2.54234 -6.98562 -0.000396375 121.465 56.7458 -143.844 -2.56826 -7.05623 -4.47982e-05 11.7576 -37.3375 20.7444 -0.16473 -0.45259 2.36315 3.18055e-15 0 3.18055e-15 0 0 0 9.93923e-17 7.95139e-16 -0 0.0282699 2.03559 2.04641e-09 -2.21166 -7.93258 8.27748 0.05672 2.04885 -0.04275 -1.98785e-16 0 3.97569e-16 0 0 0 0 0 -0 -0.05417 1.74624 0.17202 2.77639 -2.01792 -0.140584 0.10407 1.76136 -0.12397 6.4605e-16 7.95139e-16 3.97569e-16 0 0 0 0 0 -0 3.36241 1.20089 -0.311211 -68.3516 1.92655 24.3133 4.983 0.000197398 0.000166057 0.856013 1.0577 -0.361226 3.48356 3.24813e-06 1.87849e-05 8.87369e-05 1.59028e-15 0.000115331 0 0 0 5.1684e-15 7.95139e-16 -0 0.71526 -8.88178e-16 -6.66134e-16 5.1684e-15 0 6.36111e-15 0 0 0 5.1684e-15 7.95139e-16 -0 0 0 0 0 0 -0 -3.1366 1.37405 -0.404651 73.7968 -1.50306 -14.4495 -5.2419 -5.8808e-05 -0.000165864 0.686724 -2.56391 31.2935 -3.44417 5.22754e-06 -2.00002e-05 -6.96986e-05 0 -0.000337032 0 0 0 -7.95139e-16 1.59028e-15 3.18055e-15 -0.62253 -8.88178e-16 2.22045e-16 -3.97569e-15 -3.18055e-15 6.36111e-15 0 0 0 -7.95139e-16 1.59028e-15 3.18055e-15 
0.205525 -0.383621 0.410645 2.70224 3.85773 -10.4098 0 0 0 1.49089e-15 7.95139e-16 -0 1.36306 -1.79463 2.72696e-07 -44.958 -88.2052 -42.9516 2.44807 -6.72613 0.000295034 -105.869 65.073 127.684 2.5622 -7.03959 3.59965e-05 -1.43778 -27.5437 -10.3535 0.15764 -0.43311 2.32255 5.96354e-16 0 7.95139e-16 0 0 0 1.49089e-15 7.95139e-16 -0 -1.30552 -1.79463 9.47086e-09 10.1719 -10.9792 12.5813 -2.54234 -6.98562 -0.000396375 120.344 57.6318 -142.537 -2.56826 -7.05623 -4.47982e-05 10.8967 -35.629 19.4568 -0.16473 -0.45259 2.36315 3.18055e-15 -6.36111e-15 -0 0 0 0 1.49089e-15 7.95139e-16 -0 0.0282699 2.03559 2.04641e-09 -2.27158 -7.92758 8.52519 0.05672 2.04885 -0.04275 -2.60905e-16 -7.95139e-16 -3.97569e-16 0 0 0 -2.48481e-16 -7.95139e-16 -3.97569e-16 -0.05417 1.74624 0.17202 2.68274 -2.01197 -0.0227647 0.10407 1.76136 -0.12397 -2.98177e-16 -7.95139e-16 1.98785e-16 0 0 0 -2.48481e-16 -7.95139e-16 -3.97569e-16 3.36241 1.20089 -0.311211 -68.5015 1.6966 22.9159 4.983 0.000197398 0.000166057 0.816362 0.943571 -0.781979 3.48356 3.24813e-06 1.87849e-05 9.47578e-05 3.97569e-16 0.000121131 0 0 0 4.17448e-15 0 -0 0.71526 0 0 4.37326e-15 1.59028e-15 3.18055e-15 0 0 0 4.17448e-15 0 -0 0 0 0 -2.48481e-16 -7.95139e-16 -3.97569e-16 -3.1366 1.37405 -0.404651 73.5204 -1.55499 -15.4565 -5.2419 -5.8808e-05 -0.000165864 0.795839 -2.72469 33.3397 -3.44417 5.22754e-06 -2.00002e-05 -7.11394e-05 -1.59028e-15 -0.00030421 0 0 0 -3.18055e-15 -1.59028e-15 9.54166e-15 -0.62253 0 0 -3.97569e-16 7.95139e-16 -0 0 0 0 -3.18055e-15 -1.59028e-15 9.54166e-15 
0.1981 -0.359726 0.423104 2.52391 3.83432 -9.73622 0 0 0 3.97569e-16 1.59028e-15 -1.59028e-15 1.36306 -1.79463 2.72696e-07 -21.6877 -86.3569 -19.5051 2.44807 -6.72613 0.000295034 -106.046 64.9823 127.5 2.5622 -7.03959 3.59965e-05 -2.90702 -25.143 -10.0832 0.15764 -0.43311 2.32255 2.78299e-15 -7.95139e-16 1.59028e-15 0 0 0 3.97569e-16 1.59028e-15 -1.59028e-15 -1.30552 -1.79463 9.47086e-09 9.95342 -9.56793 11.3157 -2.54234 -6.98562 -0.000396375 119.472 58.2711 -141.53 -2.56826 -7.05623 -4.47982e-05 10.2195 -34.1719 18.4185 -0.16473 -0.45259 2.36315 6.36111e-15 0 -0 0 0 0 3.97569e-16 1.59028e-15 -1.59028e-15 0.0282699 2.03559 2.04641e-09 -2.35287 -7.92558 8.62254 0.05672 2.04885 -0.04275 -1.36664e-16 3.97569e-16 1.98785e-16 0 0 0 -3.47873e-16 0 3.97569e-16 -0.05417 1.74624 0.17202 2.58896 -2.00726 0.0951963 0.10407 1.76136 -0.12397 6.21202e-17 -1.59028e-15 -1.98785e-16 0 0 0 -3.47873e-16 0 3.97569e-16 3.36241 1.20089 -0.311211 -68.6424 1.4842 21.6385 4.983 0.000197398 0.000166057 0.78285 0.835077 -1.33378 3.48356 3.24813e-06 1.87849e-05 9.74946e-05 7.95139e-16 0.000127951 0 0 0 2.98177e-16 -1.98785e-15 -3.18055e-15 0.71526 0 0 1.98785e-16 -1.19271e-15 -0 0 0 0 2.98177e-16 -1.98785e-15 -3.18055e-15 0 0 0 -3.47873e-16 0 3.97569e-16 -3.1366 1.37405 -0.404651 73.2687 -1.60276 -16.3772 -5.2419 -5.8808e-05 -0.000165864 0.840132 -2.78682 34.1679 -3.44417 5.22754e-06 -2.00002e-05 -7.40875e-05 7.95139e-16 -0.000289292 0 0 0 5.1684e-15 7.95139e-16 -0 -0.62253 0 0 2.38542e-15 1.59028e-15 -3.18055e-15 0 0 0 5.1684e-15 7.95139e-16 -0 
